<svg id="Layer_1" data-name="Layer 1" xmlns="http://www.w3.org/2000/svg" viewBox="0 0 177.29 252.07"><defs><style>.cls-1{fill:#2cff1f;}</style></defs><path class="cls-1" d="M128,114.14A47.5,47.5,0,0,1,80.56,66.69V49.41a47.44,47.44,0,1,1,94.88,0V66.69A47.5,47.5,0,0,1,128,114.14Z" transform="translate(-39.35 -1.96)"/><path class="cls-1" d="M195.61,254H60.39a21.07,21.07,0,0,1-21-21V192.21a88.07,88.07,0,0,1,42.71-75.82,5.6,5.6,0,0,1,6.59.56,59.85,59.85,0,0,0,78.71,0,5.59,5.59,0,0,1,6.58-.56,88.07,88.07,0,0,1,42.71,75.82V233A21.07,21.07,0,0,1,195.61,254Z" transform="translate(-39.35 -1.96)"/></svg>